<?xml version="1.0" encoding="UTF-8"?>
<svg version="1.1" xmlns="http://www.w3.org/2000/svg" width="204" height="192">
<path d="M0 0 C67.32 0 134.64 0 204 0 C204 63.36 204 126.72 204 192 C136.68 192 69.36 192 0 192 C0 128.64 0 65.28 0 0 Z " fill="#FEFEFE" transform="translate(0,0)"/>
<path d="M0 0 C2.72802666 2.42851038 4.2425735 5.0309884 5.9375 8.25 C8.2136408 12.54735383 10.57596504 16.78478102 13 21 C13.69075294 22.2131725 14.380857 23.42671468 15.0703125 24.640625 C15.40933594 25.23617187 15.74835938 25.83171875 16.09765625 26.4453125 C16.79118211 27.66359747 17.48387065 28.88235943 18.17578125 30.1015625 C19.71149766 32.79642117 21.27850231 35.41775346 23 38 C23 38.99 23 39.98 23 41 C23.66 41 24.32 41 25 41 C25.53625 42.11375 26.0725 43.2275 26.625 44.375 C28.69274039 48.51781319 31.02055855 52.46292306 33.4375 56.41015625 C34.96959439 58.94960271 36.45045946 61.51468555 37.91601562 64.09301758 C39.05846827 66.10285939 40.20904269 68.10794053 41.359375 70.11328125 C42.15652357 71.51286505 42.95339663 72.91260581 43.75 74.3125 C44.16121094 75.02728516 44.57242188 75.74207031 44.99609375 76.47851562 C48 81.77277564 48 81.77277564 48 84 C48.66 84 49.32 84 50 84 C50.99 87.465 50.99 87.465 52 91 C52.66 91 53.32 91 54 91 C57.74724233 98.66846376 60.29300185 105.38452448 59 114 C57.5740728 118.12346048 55.60951324 121.49346658 53 125 C52.34 125 51.68 125 51 125 C51 125.66 51 126.32 51 127 C44.36855362 131.87606351 36.71420716 131.14058328 28.85400391 131.11352539 C27.1848291 131.11374443 27.1848291 131.11374443 25.48193359 131.1139679 C21.81345655 131.1132727 18.14503064 131.10549863 14.4765625 131.09765625 C11.92923002 131.09579068 9.38189718 131.09436743 6.83456421 131.09336853 C0.82112258 131.08994392 -5.1922972 131.08206693 -11.20573008 131.07201904 C-18.05458764 131.06082471 -24.90344608 131.0553391 -31.75231051 131.05032361 C-45.83488378 131.03988339 -59.91744089 131.02230468 -74 131 C-71.88982492 129.37610205 -69.93827994 127.96834869 -67.5625 126.75 C-63.30761905 123.84422765 -60.62141984 119.86425951 -59 115 C-58.34 115 -57.68 115 -57 115 C-56.83564453 113.88818359 -56.83564453 113.88818359 -56.66796875 112.75390625 C-55.96634185 109.86123396 -55.05929301 108.31698969 -53.3125 105.9375 C-50.08864131 101.31975071 -47.63741855 96.47463384 -45.19921875 91.40625 C-44 89 -44 89 -43 88 C-41.49683231 87.8775669 -39.98811833 87.82223715 -38.48022461 87.79467773 C-37.51930405 87.77473251 -36.55838348 87.75478729 -35.56834412 87.73423767 C-34.00117393 87.70916893 -34.00117393 87.70916893 -32.40234375 87.68359375 C-31.33834854 87.66281265 -30.27435333 87.64203156 -29.17811584 87.62062073 C-25.7646456 87.55500746 -22.35109571 87.49618577 -18.9375 87.4375 C-16.62954891 87.39432597 -14.321606 87.35071206 -12.01367188 87.30664062 C-6.34253318 87.19931416 -0.67131448 87.09757008 5 87 C4.44941925 86.60217819 3.8988385 86.20435638 3.33157349 85.79447937 C2.24922928 85.00035393 2.24922928 85.00035393 1.14501953 84.19018555 C0.42943878 83.66861374 -0.28614197 83.14704193 -1.02340698 82.60966492 C-3.7731372 80.3703854 -5.36778704 77.87431045 -7.125 74.8125 C-7.78113281 73.68457031 -8.43726562 72.55664062 -9.11328125 71.39453125 C-9.73589844 70.27433594 -10.35851562 69.15414062 -11 68 C-11.57105469 66.97261719 -12.14210937 65.94523437 -12.73046875 64.88671875 C-13.72278326 63.07605104 -14.70600813 61.26034002 -15.67578125 59.4375 C-16.97019779 56.93920324 -16.97019779 56.93920324 -18.73046875 54.5625 C-20.41411031 51.16413427 -20.06252637 49.61167763 -19 46 C-17.43359375 42.84375 -17.43359375 42.84375 -15.4375 39.5 C-14.71341702 38.2696046 -13.98946253 37.03913357 -13.265625 35.80859375 C-12.89244141 35.18194824 -12.51925781 34.55530273 -12.13476562 33.90966797 C-10.29240483 30.80920624 -8.48771385 27.68755939 -6.6875 24.5625 C-6.05199219 23.47066406 -5.41648437 22.37882812 -4.76171875 21.25390625 C-1.80324104 15.78957824 0.42080783 11.36181151 0.1875 5.0625 C0.16042969 4.10472656 0.13335937 3.14695312 0.10546875 2.16015625 C0.07066406 1.44730469 0.03585938 0.73445313 0 0 Z " fill="#F4BD09" transform="translate(123,22)"/>
<path d="M0 0 C2.98149775 1.58510007 4.06103239 3.15371989 5.375 6.25 C6.035 6.25 6.695 6.25 7.375 6.25 C10.92620952 12.95607869 13.0098558 18.8243223 10.75 26.32421875 C7.1796252 34.94731145 1.93068374 43.11003009 -2.95703125 51.05078125 C-3.51729004 51.98047729 -3.51729004 51.98047729 -4.08886719 52.92895508 C-5.1318991 54.65783843 -6.19243189 56.37612798 -7.25390625 58.09375 C-8.87437683 61.82406404 -8.83002346 63.40319432 -7.625 67.25 C-6.23713027 69.90589231 -6.23713027 69.90589231 -4.4375 72.4375 C-1.9252928 76.21351696 0.3772709 79.99162583 2.5 84 C6.48043327 91.36222618 9.69073266 96.48320228 17.375 100.25 C17.375 100.58 17.375 100.91 17.375 101.25 C0.875 101.58 -15.625 101.91 -32.625 102.25 C-34.935 106.54 -37.245 110.83 -39.625 115.25 C-43 120.875 -43 120.875 -44.4609375 123.2265625 C-45.76478401 125.33774431 -45.76478401 125.33774431 -46.625 128.25 C-47.285 128.25 -47.945 128.25 -48.625 128.25 C-48.74875 128.83910156 -48.8725 129.42820313 -49 130.03515625 C-50.54007393 135.49279324 -54.06888539 139.23453882 -58.75 142.1875 C-64.64307422 145.14874528 -70.57551659 145.43691755 -76.890625 143.5859375 C-82.76552658 141.00725933 -86.96074113 136.63493329 -89.77734375 130.90625 C-90.74789455 127.86489265 -90.8568225 125.37469088 -90.8125 122.1875 C-90.80605469 121.16527344 -90.79960938 120.14304687 -90.79296875 119.08984375 C-90.64861581 116.64927201 -90.32392207 114.58160404 -89.625 112.25 C-88.965 112.25 -88.305 112.25 -87.625 112.25 C-87.53605469 111.55132812 -87.44710937 110.85265625 -87.35546875 110.1328125 C-86.4629808 106.61058732 -84.90578711 104.17678231 -82.9375 101.125 C-79.76533169 96.13114129 -76.84312336 91.06821938 -74.046875 85.8515625 C-72.21430416 82.49856201 -70.23865684 79.24340002 -68.2578125 75.9765625 C-66.34173365 72.77698586 -64.47641358 69.54974146 -62.625 66.3125 C-62.2844458 65.71783936 -61.9438916 65.12317871 -61.59301758 64.51049805 C-59.4734057 60.79089158 -57.43997436 57.03359551 -55.4375 53.25 C-53.81643271 50.23252421 -52.22934511 47.60672091 -49.9375 45.0625 C-47.54212099 42.14920121 -46.67536656 39.94706184 -45.49609375 36.44921875 C-44.11999207 32.97502482 -42.12547808 29.91769317 -40.16015625 26.75 C-38.76005976 24.46994465 -37.46044287 22.16513369 -36.1875 19.8125 C-34.19891262 16.2097995 -32.10327831 12.68675339 -29.9375 9.1875 C-29.35613281 8.24777344 -28.77476563 7.30804688 -28.17578125 6.33984375 C-27.40814453 5.30537109 -27.40814453 5.30537109 -26.625 4.25 C-25.965 4.25 -25.305 4.25 -24.625 4.25 C-24.625 3.59 -24.625 2.93 -24.625 2.25 C-16.88223134 -2.51478071 -8.52425038 -3.90565654 0 0 Z " fill="#8356EB" transform="translate(112.625,8.75)"/>
<path d="M0 0 C2.72802666 2.42851038 4.2425735 5.0309884 5.9375 8.25 C8.2136408 12.54735383 10.57596504 16.78478102 13 21 C13.69075294 22.2131725 14.380857 23.42671468 15.0703125 24.640625 C15.40933594 25.23617187 15.74835938 25.83171875 16.09765625 26.4453125 C16.79118211 27.66359747 17.48387065 28.88235943 18.17578125 30.1015625 C19.71149766 32.79642117 21.27850231 35.41775346 23 38 C23 38.99 23 39.98 23 41 C23.66 41 24.32 41 25 41 C25.53625 42.11375 26.0725 43.2275 26.625 44.375 C27.81917094 46.82777557 29.04105837 49.05898386 30.6015625 51.30078125 C35.32493502 58.13959786 36.07375203 63.785797 35 72 C33.53399172 78.27495968 29.61716305 82.29580081 24.3125 85.75 C18.64417803 88.81395782 13.38415319 88.71425935 7 88 C-4.44138343 84.18620552 -10.46784946 69.3519465 -15.7109375 59.40234375 C-16.97221072 56.93238548 -16.97221072 56.93238548 -18.7265625 54.56640625 C-20.41417971 51.16528813 -20.06367896 49.61559544 -19 46 C-17.43359375 42.84375 -17.43359375 42.84375 -15.4375 39.5 C-14.71341702 38.2696046 -13.98946253 37.03913357 -13.265625 35.80859375 C-12.89244141 35.18194824 -12.51925781 34.55530273 -12.13476562 33.90966797 C-10.29240483 30.80920624 -8.48771385 27.68755939 -6.6875 24.5625 C-6.05199219 23.47066406 -5.41648437 22.37882812 -4.76171875 21.25390625 C-1.80324104 15.78957824 0.42080783 11.36181151 0.1875 5.0625 C0.16042969 4.10472656 0.13335937 3.14695312 0.10546875 2.16015625 C0.07066406 1.44730469 0.03585938 0.73445313 0 0 Z " fill="#F33D7C" transform="translate(123,22)"/>
<path d="M0 0 C4.05619813 1.35206604 4.64164575 3.23550077 6.8125 6.875 C7.33807495 7.74922607 7.33807495 7.74922607 7.87426758 8.64111328 C10.07643995 12.33465883 12.15553712 16.08481018 14.1875 19.875 C18.14665102 27.18665792 21.36707945 32.25837228 29 36 C29 36.33 29 36.66 29 37 C12.83 37 -3.34 37 -20 37 C-18.34642968 32.86607419 -16.48427526 29.19004082 -14.25 25.375 C-13.53037081 24.13201901 -12.8116305 22.88852301 -12.09375 21.64453125 C-11.73925781 21.0304541 -11.38476562 20.41637695 -11.01953125 19.78369141 C-9.06304751 16.36078187 -7.19733294 12.8887215 -5.3203125 9.421875 C-3.59310684 6.25362794 -1.80518429 3.12435742 0 0 Z " fill="#30C8DD" transform="translate(101,73)"/>
<path d="M0 0 C0.9310556 0.00429016 1.86211121 0.00858032 2.82138062 0.01300049 C3.83558075 0.03313705 4.84978088 0.05327362 5.89471436 0.07402039 C7.50492966 0.08799362 7.50492966 0.08799362 9.14767456 0.10224915 C12.69746358 0.13663607 16.24657393 0.192529 19.79608154 0.24858093 C22.25657708 0.2766118 24.71708823 0.30330244 27.1776123 0.32870483 C33.65510481 0.39918696 40.13222502 0.48790193 46.60943604 0.58036804 C53.218398 0.67150379 59.82754949 0.74546026 66.43670654 0.82084656 C79.40569786 0.97131571 92.37437622 1.14045706 105.34295654 1.32279968 C105.34295654 1.98279968 105.34295654 2.64279968 105.34295654 3.32279968 C67.72295654 3.32279968 30.10295654 3.32279968 -8.65704346 3.32279968 C-4.15704346 -0.05220032 -4.15704346 -0.05220032 0 0 Z " fill="#F6C62D" transform="translate(57.65704345703125,149.6772003173828)"/>
<path d="M0 0 C3.82669043 3.42388092 5.72278474 6.00724943 7 11 C6.34 11 5.68 11 5 11 C4.67 9.68 4.34 8.36 4 7 C3.01 7 2.02 7 1 7 C0.67 8.65 0.34 10.3 0 12 C-1.31157516 9.37684968 -0.89649988 7.76966564 -0.5625 4.875 C-0.46066406 3.96492188 -0.35882813 3.05484375 -0.25390625 2.1171875 C-0.17011719 1.41851562 -0.08632812 0.71984375 0 0 Z " fill="#F6B12C" transform="translate(158,84)"/>
<path d="M0 0 C0.75 1.5625 0.75 1.5625 1 4 C-0.13084437 6.50286409 -1.52139516 8.67007722 -3 11 C-3.66 11 -4.32 11 -5 11 C-3.55049545 7.2089881 -1.84827434 3.6125362 0 0 Z " fill="#E5B031" transform="translate(79,111)"/>
</svg>
